<?xml version="1.0" encoding="utf-8"?>
<!-- Generator: Adobe Illustrator 22.0.0, SVG Export Plug-In . SVG Version: 6.00 Build 0)  -->
<svg version="1.1" id="图层_1" xmlns="http://www.w3.org/2000/svg" xmlns:xlink="http://www.w3.org/1999/xlink" x="0px" y="0px"
	 viewBox="0 0 95.3 128" style="enable-background:new 0 0 95.3 128;" xml:space="preserve">
<style type="text/css">
	.st0{fill:#FFFFFF;}
	.st1{fill:#394F54;}
	.st2{fill:url(#SVGID_1_);}
	.st3{fill:url(#SVGID_2_);}
	.st4{fill:url(#SVGID_3_);}
	.st5{fill:url(#SVGID_4_);}
	.st6{fill:url(#SVGID_5_);}
	.st7{fill:url(#SVGID_6_);}
	.st8{fill:url(#SVGID_7_);}
	.st9{fill:url(#SVGID_8_);}
	.st10{fill:url(#SVGID_9_);}
	.st11{fill:#107B62;}
	.st12{fill:url(#SVGID_10_);}
	.st13{fill:url(#SVGID_11_);}
	.st14{fill:url(#SVGID_12_);}
	.st15{fill:url(#SVGID_13_);}
	.st16{fill:url(#SVGID_14_);}
	.st17{fill:url(#SVGID_15_);}
	.st18{fill:url(#SVGID_16_);}
	.st19{fill:url(#SVGID_17_);}
	.st20{fill:url(#SVGID_18_);}
	.st21{fill:url(#SVGID_19_);}
	.st22{fill:#666666;}
	.st23{fill:#8AA6B3;}
	.st24{fill:url(#SVGID_20_);}
	.st25{fill:url(#SVGID_21_);}
	.st26{fill:url(#SVGID_22_);}
	.st27{fill:url(#SVGID_23_);}
	.st28{fill:url(#SVGID_24_);}
	.st29{fill:#24E1C5;}
	.st30{fill:url(#SVGID_25_);}
	.st31{fill:#03C0AB;}
	.st32{fill:#AAAAAA;}
</style>
<g>
	<path class="st0" d="M91.3,120.8H4c-1.8,0-3.2-1.5-3.2-3.3V4.1c0-1.8,1.4-3.3,3.2-3.3h87.3c1.8,0,3.2,1.5,3.2,3.3v113.4
		C94.5,119.3,93.1,120.8,91.3,120.8z"/>
	<path class="st0" d="M53.5,119.9l-4.9,6.4c-0.5,0.6-1.4,0.6-2,0l-4.9-6.4"/>
</g>
<g>
	<path class="st1" d="M39.7,69.3l-0.4-1.7c-0.7,0.1-1.3,0.1-2,0L36.9,69l2.8,2.4c0.5,0.5,1.1,0.6,1.7,0.5c-0.1-0.1-0.1-0.1-0.1-0.3
		L39.7,69.3 M46.2,62.3c-0.7,0.1-1.4,0.1-2.2,0v1.5l4.1,2.1c0.6,0.1,0.7-0.2,0.3-0.7L46.2,62.3L46.2,62.3z"/>
	
		<linearGradient id="SVGID_1_" gradientUnits="userSpaceOnUse" x1="26.0238" y1="919.3375" x2="29.5512" y2="919.3375" gradientTransform="matrix(1 0 0 1 0 -870)">
		<stop  offset="0" style="stop-color:#FFFFFF"/>
		<stop  offset="1" style="stop-color:#D4C7C8"/>
	</linearGradient>
	<path class="st2" d="M37.3,65.2c0,0.1,0,0.1,0,0.2v2.3c0.7,0.1,1.3,0.1,2,0l0.4-2.4C38.9,65.3,38.1,65.3,37.3,65.2 M45.2,60
		c-0.8,0.1-1.6,0.1-2.3,0c0.3,0.7,0.7,1.5,1.1,2.3c0.8,0.1,1.5,0.1,2.2,0C45.8,61.6,45.4,60.8,45.2,60 M28.1,31.1
		c-0.4,0.1-0.9,0-1.6-0.2c0,0.8-0.6,1.5-1.8,1.9c-0.5,0.3-0.5,0.7,0,1.1c0.7,1,0.1,2-1.9,2.8c0.2,0.1,0.3,0.3,0.5,0.4
		c0.8,0.4,1.7,0.6,2.8,0.5c0.4,0,0.9-0.1,1.3-0.2L26.3,35c1.1,0.2,1.6-0.3,1.5-1.7h0.6C28.6,32.8,28.4,32.1,28.1,31.1 M31.4,51.3
		c-0.2-0.7-0.5-1.1-0.9-1.5c-0.2-0.2-0.5-0.3-0.8-0.4c-0.2,0-0.4-0.1-0.6,0c-0.6,0.1-1.3,0.1-2,0.2v1.7h2.5l0.8,1
		c0.4,0,0.8-0.2,1-0.7C31.4,51.4,31.4,51.4,31.4,51.3z"/>
	
		<linearGradient id="SVGID_2_" gradientUnits="userSpaceOnUse" x1="30.7221" y1="927.7375" x2="41.362" y2="927.7375" gradientTransform="matrix(1 0 0 1 0 -870)">
		<stop  offset="0" style="stop-color:#083E2C"/>
		<stop  offset="1" style="stop-color:#083E2C"/>
	</linearGradient>
	<path class="st3" d="M41.4,57.1v-0.7c-1.2-3-1.7-5-1.5-6.2c-3,2.9-6.1,4.9-9.1,6.1h6h0.9c-1,1.1-1.2,3.1-0.7,5.8
		c0.2,1.2,0.3,2.3,0.4,3.1c0.8,0.1,1.6,0.1,2.4,0L41.4,57.1z"/>
	
		<linearGradient id="SVGID_3_" gradientUnits="userSpaceOnUse" x1="67.6" y1="942.7478" x2="67.6" y2="910.0474" gradientTransform="matrix(1 0 0 1 0 -870)">
		<stop  offset="0" style="stop-color:#84E1C2"/>
		<stop  offset="1" style="stop-color:#23CA95"/>
	</linearGradient>
	<path class="st4" d="M63.5,68.8v1.6h0.8c0,0.5,0,1.1,0.1,1.6c0.2,1.2,0.8,2.3,1.6,3.3h3.2c0.9-1,1.4-2.1,1.6-3.3
		c0.1-0.5,0.1-1.1,0.1-1.6h0.8v-1.6h-1.6h-2H67H63.5z"/>
	
		<linearGradient id="SVGID_4_" gradientUnits="userSpaceOnUse" x1="23.0169" y1="907.9993" x2="45.193" y2="907.9993" gradientTransform="matrix(1 0 0 1 0 -870)">
		<stop  offset="0" style="stop-color:#083E2C"/>
		<stop  offset="1" style="stop-color:#004873"/>
	</linearGradient>
	<path class="st5" d="M26.2,37.6c-1.1,0.1-2.1-0.1-2.8-0.5C24.6,39.3,25.6,39.5,26.2,37.6 M27.5,37.3c-0.5,0.1-0.9,0.2-1.3,0.2
		c0.8,1.5,1.3,1.6,1.6,0.3L27.5,37.3z"/>
	
		<linearGradient id="SVGID_5_" gradientUnits="userSpaceOnUse" x1="22.0197" y1="925.1977" x2="22.0197" y2="898.28" gradientTransform="matrix(1 0 0 1 0 -870)">
		<stop  offset="0" style="stop-color:#FFFFFF"/>
		<stop  offset="1" style="stop-color:#1BC690"/>
	</linearGradient>
	<path class="st6" d="M26.8,27.7c-0.7-0.3-1.6-0.4-2.5-0.1c-1,0.2-1.6,0.8-2,1.8s-0.8,1.8-1.4,2.5c-0.3,0.3-0.6,0.5-1,0.8
		s-0.7,0.5-1.1,0.6c-0.4,0.2-0.7,0.4-1.1,0.6c-0.4,0.2-0.7,0.5-1,0.7s-0.5,0.5-0.8,0.8s-0.5,0.8-0.7,1.4s-0.3,1.1-0.3,1.5
		s0,0.8,0.2,1.2c0.1,0.4,0.3,0.7,0.7,1c0.3,0.3,0.5,0.4,0.6,0.5c0,1.1,0.3,2,0.8,2.8c0.2,0.2,0.3,0.4,0.5,0.6l1.6-5.1
		c0.3-0.5,0.9-1,1.6-1.4l2-1.2c1.9-0.9,2.6-1.8,1.9-2.8c-0.5-0.4-0.5-0.8,0-1.1c1.2-0.4,1.8-1.1,1.8-1.9c0.7,0.3,1.2,0.4,1.6,0.2
		c0.3-0.1,0.6-0.3,0.8-0.6c0.2-0.3,0.2-0.6-0.1-0.9c-0.2-0.2-0.3-0.5-0.5-0.8C28,28.4,27.5,28,26.8,27.7z"/>
	
		<linearGradient id="SVGID_6_" gradientUnits="userSpaceOnUse" x1="-300.5312" y1="929.9" x2="173.1752" y2="929.9" gradientTransform="matrix(1 0 0 1 0 -870)">
		<stop  offset="0.8196" style="stop-color:#FFFFFF"/>
		<stop  offset="1" style="stop-color:#D4DFF7"/>
	</linearGradient>
	<path class="st7" d="M75.9,51.8c-0.4-0.5-0.8-0.7-1.4-0.7c-0.8,0-1.4,0.4-2,1.2c-0.5,0.8-0.8,1.6-0.8,2.5c-0.1,0.7-0.3,1.2-0.3,1.5
		c-0.1,0.4-0.4,0.8-0.6,1.1c-0.1,0.2-0.4,0.3-0.7,0.5c-0.3,0.1-0.6,0.3-0.8,0.4c0.1,0,0.1,0,0.2,0.1c0.7,0.2,1.2,0.5,1.5,0.7
		c0.5,0.4,0.7,0.9,0.7,1.5c0,0.4-0.2,0.8-0.5,1.4c-0.1,0.2-0.5,0.7-1.2,1.6c-1.2,1.5-1.8,2.8-1.8,3.8c0,0.4,0.1,0.8,0.2,1.3h2
		c0.1-0.8,0.5-1.5,1.1-2.1c0.4-0.4,1.3-1,2.5-1.7s2-1.3,2.5-1.8c0.8-0.8,1.1-1.7,1.1-2.8c0-0.8-0.3-1.6-0.9-2.4
		c-0.3-0.4-0.5-0.8-0.6-0.9c-0.2-0.4-0.3-0.7-0.3-1.1c0-0.2,0.1-0.7,0.4-1.3c0.2-0.7,0.3-1.1,0.3-1.4C76.4,52.7,76.3,52.2,75.9,51.8
		z"/>
	
		<linearGradient id="SVGID_7_" gradientUnits="userSpaceOnUse" x1="67.5" y1="917.2395" x2="67.5" y2="912.4544" gradientTransform="matrix(1 0 0 1 0 -870)">
		<stop  offset="0" style="stop-color:#D6CACB"/>
		<stop  offset="1" style="stop-color:#85908F"/>
	</linearGradient>
	<path class="st8" d="M69,43.2h-3c0.1,1.7-0.2,2.8-0.9,3.3h4.8C69.2,46,68.9,44.9,69,43.2z"/>
	
		<linearGradient id="SVGID_8_" gradientUnits="userSpaceOnUse" x1="41.9403" y1="94.45" x2="57.2785" y2="94.45" gradientTransform="matrix(1 0 0 -1 0 130)">
		<stop  offset="0" style="stop-color:#B9195A"/>
		<stop  offset="1" style="stop-color:#B7195C"/>
	</linearGradient>
	<path class="st9" d="M54.7,47.5c1.1-0.1,2-0.5,2.6-1.3h-5c0.3,0.8,0.9,1.2,1.9,1.3H54.7 M50.6,39.8c0.3,0.2,0.7,0.3,1.1,0.3h0.1
		c1,0,2.1-0.4,3.2-1.4h-5.4C49.8,39.1,50.1,39.4,50.6,39.8 M47.4,31.1c0.3,0.8,0.8,1.3,1.7,1.3c1.3,0.1,2.5-0.4,3.4-1.3L47.4,31.1
		 M50.7,23.6h-6.8c-1.1,0.1-1.8,0.7-2,2h2.4h4.2C48.8,24.4,49.6,23.7,50.7,23.6z"/>
	
		<linearGradient id="SVGID_9_" gradientUnits="userSpaceOnUse" x1="59.447" y1="927.35" x2="71.5759" y2="927.35" gradientTransform="matrix(1 0 0 1 0 -870)">
		<stop  offset="0" style="stop-color:#0B4934"/>
		<stop  offset="1" style="stop-color:#0B634D"/>
		<stop  offset="1" style="stop-color:#004873"/>
		<stop  offset="1" style="stop-color:#004873"/>
	</linearGradient>
	<path class="st10" d="M63,45.8c-0.1,0-0.1,0-0.2,0c-0.1,0-0.2,0-0.3,0c-0.2,0-0.4,0-0.6,0.1c-0.3,0.1-0.6,0.4-0.8,0.9
		s-0.4,0.9-0.4,1.4c0,0.4,0.4,1.1,1.1,1.9l0.1,0.1c0.7,0.8,1,1.3,1,1.5c0,0.5-0.2,0.9-0.5,1.3c-0.1,0.1-0.2,0.2-0.4,0.4
		s-0.5,0.3-0.8,0.6c-0.6,0.4-1,0.7-1.2,1c-0.4,0.4-0.6,0.9-0.6,1.5c0,0.7,0.3,1.2,0.8,1.6c0.3,0.3,0.9,0.5,1.7,0.8H62
		c0.9,0.3,1.4,0.5,1.6,0.6c0.5,0.3,0.8,0.6,0.8,1.1c0,0.3-0.2,0.6-0.5,0.9c-0.2,0.1-0.6,0.4-1.2,0.9c-0.3,0.2-0.5,0.4-0.7,0.5
		c-0.7,0.6-1,1.1-1,1.6c0,0.8,0.3,1.3,1,1.8c0,0,0,0,0.1,0c0.4,0.3,1.2,0.5,2.3,0.8c1.1,0.3,1.8,0.6,2.1,0.8c0.4,0.3,0.6,0.6,0.7,1
		h1.1c-0.1-0.5-0.2-0.9-0.2-1.3c0-1,0.6-2.3,1.8-3.8c0.7-0.9,1.1-1.5,1.2-1.6c0.4-0.6,0.5-1,0.5-1.4c0-0.7-0.2-1.2-0.7-1.5
		c-0.3-0.3-0.8-0.5-1.5-0.7c-0.1,0-0.1-0.1-0.2-0.1c-0.7-0.2-1.1-0.4-1.3-0.5c-0.5-0.3-0.7-0.6-0.7-1.1c0-0.4,0.2-0.8,0.5-1.2
		c0.2-0.2,0.5-0.5,1-0.9s0.8-0.7,1-1c0.3-0.4,0.4-0.8,0.4-1.3c0-1-0.6-1.6-1.8-1.8c-1.4-0.1-2.2-0.2-2.6-0.4c-0.3-0.2-0.6-0.5-0.7-1
		s-0.2-1-0.2-1.2l0,0c-0.1-0.6-0.3-1-0.7-1.4C63.8,46.2,63.4,46,63,45.8z"/>
	<path class="st11" d="M61.6,40.8c0.2,0,0.3,0.1,0.3,0.3v1.4h14V32.2H59.2v8.6L61.6,40.8 M65.4,33.3h3.2c0.3,0,0.5,0.2,0.5,0.5v1.1
		h1.1c0.4,0,0.5,0.2,0.5,0.5v5.5c0,0.3-0.2,0.5-0.5,0.5h-4h-0.7c-0.4,0-0.5-0.2-0.5-0.5v-7.1C64.9,33.5,65.1,33.3,65.4,33.3z"/>
	<path class="st0" d="M69.1,34.9h-2.9c-0.4,0-0.5,0.2-0.5,0.5v5.5c0,0.3,0.2,0.5,0.5,0.5h4c0.4,0,0.5-0.2,0.5-0.5v-5.5
		c0-0.3-0.2-0.5-0.5-0.5H69.1"/>
	<path class="st0" d="M58,61.1c0.1,0,0.2,0,0.2-0.1c0.1-0.1,0.1-0.1,0.1-0.2v-0.1c0-0.1,0-0.2-0.1-0.2l0,0c-0.1,0-0.1-0.1-0.2-0.1
		h-7.5c-0.1,0-0.2,0-0.2,0.1s-0.1,0.1-0.1,0.2l0,0v0.1c0,0.1,0,0.2,0.1,0.2c0.1,0.1,0.1,0.1,0.2,0.1H58"/>
	<path class="st0" d="M58.2,58.8c0.1-0.1,0.1-0.1,0.1-0.2v-0.1c0-0.1,0-0.2-0.1-0.2c0-0.2-0.1-0.3-0.2-0.3h-7.5
		c-0.1,0-0.2,0-0.2,0.1c-0.1,0.1-0.1,0.1-0.1,0.2v0.1c0,0.1,0,0.2,0.1,0.2c0.1,0.1,0.1,0.1,0.2,0.1H58
		C58.1,58.9,58.2,58.8,58.2,58.8z"/>
	
		<linearGradient id="SVGID_10_" gradientUnits="userSpaceOnUse" x1="-300.5312" y1="907.35" x2="173.1752" y2="907.35" gradientTransform="matrix(1 0 0 1 0 -870)">
		<stop  offset="0" style="stop-color:#FFFFFF"/>
		<stop  offset="1" style="stop-color:#D4C7C8"/>
	</linearGradient>
	<path class="st12" d="M66.2,34.9h2.9v-1.1c0-0.3-0.2-0.5-0.5-0.5h-3.2c-0.4,0-0.5,0.2-0.5,0.5v7.1c0,0.3,0.2,0.5,0.5,0.5h0.7
		c-0.3,0-0.5-0.2-0.5-0.5v-5.5C65.6,35.1,65.8,34.9,66.2,34.9z"/>
	
		<linearGradient id="SVGID_11_" gradientUnits="userSpaceOnUse" x1="54.2223" y1="917.3528" x2="47.8688" y2="908.6428" gradientTransform="matrix(1 0 0 1 0 -870)">
		<stop  offset="0" style="stop-color:#FFFFFF"/>
		<stop  offset="1" style="stop-color:#D4C7C8"/>
	</linearGradient>
	<path class="st13" d="M48.5,41.6c-3.1,2.5-3.8,4.5-1.9,5.9h7.6c-1-0.1-1.6-0.5-1.9-1.3l0,0c-0.4-1.6,0.5-3.2,2.8-4.8
		c0.3-0.2,0.6-0.4,0.8-0.6c0.3-0.3,0.5-0.7,0.5-1c-0.1-0.7-0.5-1.1-1.3-1.1c-1.2,0.9-2.2,1.4-3.2,1.4h-0.1H49
		c0.2,0.2,0.3,0.4,0.1,0.7C49.1,41,48.8,41.3,48.5,41.6z"/>
	
		<linearGradient id="SVGID_12_" gradientUnits="userSpaceOnUse" x1="-253.6347" y1="931.6" x2="220.0717" y2="931.6" gradientTransform="matrix(1 0 0 1 0 -870)">
		<stop  offset="0" style="stop-color:#84E1C2"/>
		<stop  offset="1" style="stop-color:#23CA95"/>
	</linearGradient>
	<path class="st14" d="M32.4,52.7c0.9-0.5,1.4-0.9,1.4-1.4h-2.4c0,0.1,0,0.2,0.1,0.2c-0.3,0.5-0.6,0.8-1,0.7l-0.8-1h-2.5h-8.6
		l2.8,9.2h2.5L20.3,72h1l5.1-11.5H29L34.1,72H35l-3.6-11.5h3.4l1.8-4.1h-6c-1.3,0.4-2.4,0.6-3.4,0.5l1.5-4.2H32.4 M23,52.7h5l-1.5,4
		C24.7,56.3,23.6,55,23,52.7z"/>
	
		<linearGradient id="SVGID_13_" gradientUnits="userSpaceOnUse" x1="23" y1="922.4299" x2="45.1761" y2="922.4299" gradientTransform="matrix(1 0 0 1 0 -870)">
		<stop  offset="0" style="stop-color:#0B4934"/>
		<stop  offset="1" style="stop-color:#0B634D"/>
		<stop  offset="1" style="stop-color:#004873"/>
		<stop  offset="1" style="stop-color:#004873"/>
	</linearGradient>
	<path class="st15" d="M28,52.7h-5c0.6,2.3,1.7,3.6,3.5,4L28,52.7 M41.4,44.8c-0.2,0-0.3,0.1-0.5,0.1L32.1,49l-1.6,0.8
		c0.4,0.3,0.7,0.8,0.9,1.5h2.4c0,0.5-0.4,0.9-1.4,1.4h-3.6l-1.5,4.2c1,0.1,2.1-0.1,3.4-0.5c3-1.2,6.1-3.2,9.1-6.1
		c-0.2,1.2,0.4,3.2,1.5,6.2c0,0.1,0.1,0.2,0.1,0.2c0.4,1,0.9,2.1,1.4,3.3c0.7,0.1,1.5,0.1,2.3,0v-0.1c-1.1-4.8-2-9.5-2.6-14
		C42.3,45.1,41.9,44.7,41.4,44.8z"/>
	
		<linearGradient id="SVGID_14_" gradientUnits="userSpaceOnUse" x1="-300.5312" y1="914" x2="173.1752" y2="914" gradientTransform="matrix(1 0 0 1 0 -870)">
		<stop  offset="0" style="stop-color:#B9195A"/>
		<stop  offset="1" style="stop-color:#B7195C"/>
	</linearGradient>
	<path class="st16" d="M35,45.5c-0.5-0.4-1-0.8-1.3-1.4l-3.4,3l-1.7-3.8c0.4-0.9,0.6-1.7,0.4-2.4l-1.3-3c-0.3,1.3-0.8,1.2-1.6-0.3
		c-0.6,1.9-1.5,1.7-2.8-0.5c-0.2-0.1-0.4-0.2-0.5-0.4l-2,1.2c-0.7,0.4-1.3,0.9-1.6,1.4l-1.6,5.1L16,49.5c-0.3,1.1,0,1.7,1,1.8h1.6
		h8.6v-1.7c0.7-0.1,1.4-0.1,2-0.2c0.2,0,0.4,0,0.6,0c0.3,0.1,0.6,0.2,0.8,0.4l1.6-0.8L35,45.5 M19.9,48.8l1-2.7l0.9,2.7H19.9z"/>
	
		<linearGradient id="SVGID_15_" gradientUnits="userSpaceOnUse" x1="33.7146" y1="912.5" x2="38.2684" y2="912.5" gradientTransform="matrix(1 0 0 1 0 -870)">
		<stop  offset="0" style="stop-color:#FFFFFF"/>
		<stop  offset="1" style="stop-color:#D4C7C8"/>
	</linearGradient>
	<path class="st17" d="M34.5,43.4l-0.8,0.7c0.3,0.5,0.8,1,1.3,1.4l2.1-2.5h-1.5c0-0.4-0.1-0.8-0.4-1.1c0.4-0.6,0.4-1,0-1l-0.4,0.5
		l-0.3,0.4L34.5,43.4 M37.8,39.6c-0.1-0.1-0.1-0.1-0.2-0.1c-0.1,0-0.1,0-0.2,0.1l0,0c-0.1,0.1-0.1,0.1-0.1,0.2c0,0.1,0,0.2,0.1,0.2
		l0,0c0.1,0,0.1,0.1,0.2,0.1h-0.2h-0.6c-0.1,0-0.2,0-0.2,0.1c-0.1,0.1-0.1,0.1-0.1,0.2c0,0.1,0,0.2,0.1,0.2c0.1,0.1,0.1,0.1,0.2,0.1
		c-0.1,0-0.1,0-0.2,0.1c-0.1,0.1-0.1,0.1-0.1,0.2c0,0.1,0,0.2,0.1,0.2c0.1,0.1,0.1,0.1,0.2,0.1h-0.2c-0.1,0-0.2,0-0.2,0.1
		c-0.1,0.1-0.1,0.1-0.1,0.2s0,0.2,0.1,0.2c0.1,0.1,0.1,0.1,0.2,0.1h0.8h0.3l0,0c0.1,0,0.1-0.1,0.2-0.1c0.1-0.1,0.1-0.1,0.1-0.2
		s0-0.2-0.1-0.2c-0.1-0.1-0.1-0.1-0.2-0.1H38c0.1,0,0.2,0,0.2-0.1c0.1-0.1,0.1-0.1,0.1-0.2c0-0.1,0-0.2-0.1-0.2
		c-0.1-0.1-0.1-0.1-0.2-0.1c0.1,0,0.1,0,0.2-0.1c0.1-0.1,0.1-0.1,0.1-0.2c0-0.1,0-0.2-0.1-0.2c-0.1-0.1-0.1-0.1-0.2-0.1h-0.3
		c0.1,0,0.1,0,0.2-0.1c0.1-0.1,0.1-0.2,0.1-0.3S37.9,39.6,37.8,39.6z"/>
	
		<linearGradient id="SVGID_16_" gradientUnits="userSpaceOnUse" x1="54.25" y1="942.7478" x2="54.25" y2="910.0474" gradientTransform="matrix(1 0 0 1 0 -870)">
		<stop  offset="0" style="stop-color:#FFFFFF"/>
		<stop  offset="1" style="stop-color:#28CA96"/>
	</linearGradient>
	<path class="st18" d="M41.7,40.8c-0.2,0-0.3,0.1-0.3,0.3v3.7c0.6-0.1,1,0.3,1.2,1.1c0.7,4.5,1.5,9.1,2.6,14V60
		c0.2,0.8,0.6,1.6,1,2.3c0,0,0,0.1,0.1,0.1l2.1,2.8c0.4,0.6,0.4,0.8-0.3,0.7L44,63.8v-1.5c-0.4-0.8-0.8-1.6-1.1-2.3
		c-0.6-1.2-1-2.3-1.4-3.3l-0.1,0.5v14.6l0.2,0.3h-0.1c0.1,0,0.1,0.1,0.2,0.1h19.9h0.1c0.1,0,0.1,0,0.2-0.1h2.5
		c-0.1-0.5-0.1-1.1-0.1-1.6h-0.8v-1.6h3.6c-0.1-0.4-0.3-0.7-0.7-1c-0.4-0.3-1.1-0.5-2.1-0.8c-1.1-0.3-1.9-0.6-2.3-0.8h-0.1
		c-0.7-0.4-1-1-1-1.8c0-0.5,0.3-1,1-1.6c0.2-0.2,0.4-0.4,0.7-0.5c0.6-0.4,1-0.7,1.2-0.9c0.3-0.3,0.5-0.6,0.5-0.9
		c0-0.5-0.3-0.8-0.8-1.1c-0.2-0.1-0.7-0.3-1.6-0.6c0,0,0,0-0.1,0c-0.8-0.3-1.3-0.5-1.7-0.8c-0.5-0.4-0.8-1-0.8-1.6s0.2-1.1,0.6-1.5
		c0.2-0.3,0.6-0.6,1.2-1c0.3-0.2,0.6-0.4,0.8-0.6c0.2-0.2,0.3-0.3,0.4-0.4c0.4-0.4,0.5-0.8,0.5-1.3c0-0.3-0.3-0.8-1-1.5
		c0,0,0-0.1-0.1-0.1c-0.7-0.8-1.1-1.4-1.1-1.9c0-0.4,0.1-0.9,0.4-1.4c0.2-0.4,0.5-0.7,0.8-0.9v-2.7v-0.7v-1.4c0-0.2-0.1-0.3-0.3-0.3
		h-2.4h-1.3h-2.1c-0.2,0.2-0.4,0.4-0.8,0.6c-2.3,1.6-3.2,3.2-2.8,4.8l0,0h5c-0.6,0.8-1.5,1.2-2.6,1.3H54h-7.6
		c-1.9-1.4-1.2-3.4,1.9-5.9c0.4-0.3,0.6-0.6,0.7-0.9h-7.3 M58.2,55.9c0.1,0.1,0.1,0.1,0.1,0.2v0.1c0,0.1,0,0.2-0.1,0.2
		c-0.1,0.1-0.1,0.1-0.2,0.1h-7.5c-0.1,0-0.2,0-0.2-0.1c-0.1-0.1-0.1-0.1-0.1-0.2v-0.1c0-0.1,0-0.2,0.1-0.2c0.1-0.1,0.1-0.1,0.2-0.1
		H58C58.1,55.8,58.2,55.9,58.2,55.9 M58.3,58.5c0,0.1,0,0.2-0.1,0.2c-0.1,0.1-0.1,0.1-0.2,0.1h-7.5c-0.1,0-0.2,0-0.2-0.1
		c-0.1-0.1-0.1-0.1-0.1-0.2v-0.1c0-0.1,0-0.2,0.1-0.2c0.1-0.1,0.1-0.1,0.2-0.1H58c0.1,0,0.2,0,0.2,0.1
		C58.3,58.3,58.3,58.3,58.3,58.5L58.3,58.5 M58.2,61c-0.1,0.1-0.1,0.1-0.2,0.1h-7.5c-0.1,0-0.2,0-0.2-0.1c-0.1-0.1-0.1-0.1-0.1-0.2
		v-0.1l0,0c0-0.1,0-0.2,0.1-0.2c0.1-0.1,0.1-0.1,0.2-0.1H58c0.1,0,0.1,0,0.2,0.1l0,0c0.1,0.1,0.1,0.1,0.1,0.2v0.1
		C58.3,60.8,58.3,60.9,58.2,61 M48.9,55.7L48.9,55.7C49,55.9,49,56,49,56.1s0,0.3-0.1,0.4c-0.1,0.1-0.2,0.1-0.3,0.1h-0.1
		c-0.1,0-0.3,0-0.4-0.1C48,56.4,48,56.3,48,56.1c0-0.1,0-0.3,0.1-0.4c0.1-0.1,0.2-0.1,0.4-0.1C48.7,55.6,48.8,55.7,48.9,55.7
		 M48.2,58.1c0,0,0.1-0.1,0.2-0.1c0,0,0.1,0,0.2,0c0.1,0,0.3,0,0.4,0.1l0.1,0.1c0,0.1,0.1,0.2,0.1,0.3v0.1c0,0.1-0.1,0.2-0.1,0.2
		c-0.1,0.1-0.2,0.1-0.4,0.1c-0.1,0-0.2,0-0.3-0.1l0,0c-0.1-0.1-0.1-0.2-0.1-0.4C48,58.3,48.1,58.2,48.2,58.1 M48.1,61
		C48,60.9,48,60.8,48,60.7s0-0.2,0.1-0.3c0,0,0-0.1,0.1-0.1c0.1-0.1,0.2-0.1,0.4-0.1c0.1,0,0.3,0,0.4,0.1c0.1,0.1,0.1,0.2,0.1,0.4
		c0,0.1,0,0.3-0.1,0.4c-0.1,0.1-0.2,0.1-0.4,0.1C48.4,61.2,48.3,61.1,48.1,61L48.1,61z"/>
	
		<linearGradient id="SVGID_17_" gradientUnits="userSpaceOnUse" x1="48.012" y1="930.6" x2="49.0239" y2="930.6" gradientTransform="matrix(1 0 0 1 0 -870)">
		<stop  offset="0" style="stop-color:#0B4934"/>
		<stop  offset="1" style="stop-color:#0B634D"/>
		<stop  offset="1" style="stop-color:#004873"/>
		<stop  offset="1" style="stop-color:#004873"/>
	</linearGradient>
	<path class="st19" d="M48,60.7c0,0.1,0,0.2,0.1,0.3l0,0c0.1,0.1,0.2,0.1,0.4,0.1c0.1,0,0.3,0,0.4-0.1c0.1-0.1,0.1-0.2,0.1-0.4
		c0-0.1,0-0.3-0.1-0.4c-0.1-0.1-0.2-0.1-0.4-0.1c-0.1,0-0.3,0-0.4,0.1c0,0,0,0-0.1,0.1C48,60.5,48,60.6,48,60.7z"/>
	
		<linearGradient id="SVGID_18_" gradientUnits="userSpaceOnUse" x1="48.012" y1="928.5" x2="49.0239" y2="928.5" gradientTransform="matrix(1 0 0 1 0 -870)">
		<stop  offset="0" style="stop-color:#0B4934"/>
		<stop  offset="1" style="stop-color:#0B634D"/>
		<stop  offset="1" style="stop-color:#004873"/>
		<stop  offset="1" style="stop-color:#004873"/>
	</linearGradient>
	<path class="st20" d="M48.3,58c-0.1,0-0.1,0.1-0.2,0.1C48,58.2,48,58.3,48,58.5c0,0.1,0,0.3,0.1,0.4l0,0c0.1,0.1,0.2,0.1,0.3,0.1
		s0.3,0,0.4-0.1c0.1-0.1,0.1-0.1,0.1-0.2v-0.1c0-0.1,0-0.2-0.1-0.3c0,0,0-0.1-0.1-0.1c0.1-0.2,0-0.2-0.2-0.2
		C48.5,58,48.4,58,48.3,58z"/>
	
		<linearGradient id="SVGID_19_" gradientUnits="userSpaceOnUse" x1="48.012" y1="926.15" x2="49.0239" y2="926.15" gradientTransform="matrix(1 0 0 1 0 -870)">
		<stop  offset="0" style="stop-color:#0B4934"/>
		<stop  offset="1" style="stop-color:#0B634D"/>
		<stop  offset="1" style="stop-color:#004873"/>
		<stop  offset="1" style="stop-color:#004873"/>
	</linearGradient>
	<path class="st21" d="M48.9,55.8L48.9,55.8c-0.1-0.1-0.2-0.1-0.4-0.1c-0.1,0-0.3,0-0.4,0.1c0,0.1-0.1,0.2-0.1,0.3s0,0.3,0.1,0.4
		c0.1,0.1,0.2,0.1,0.4,0.1h0.1c0.1,0,0.2-0.1,0.3-0.1c0.1-0.1,0.1-0.2,0.1-0.4C49,56,49,55.9,48.9,55.8z"/>
	<path class="st22" d="M36.8,38.5v-0.4h-1.5v0.4H36.8z"/>
	<path class="st23" d="M37.4,38.4c0-0.2-0.1-0.3-0.3-0.3h-0.2v0.4h-1.5v-0.4h-0.2c-0.2,0-0.3,0.1-0.3,0.3v3l0.4-0.5
		c0.4,0,0.4,0.3,0,1c0.3,0.3,0.4,0.7,0.4,1.1h1.5c0.2,0,0.3-0.1,0.3-0.4v-0.4h-0.8c-0.1,0-0.2,0-0.2-0.1c-0.1-0.1-0.1-0.1-0.1-0.2
		s0-0.2,0.1-0.2c0.1-0.1,0.1-0.1,0.2-0.1h0.2c-0.1,0-0.1,0-0.2-0.1c-0.1-0.1-0.1-0.1-0.1-0.2c0-0.1,0-0.2,0.1-0.2
		c0.1-0.1,0.1-0.1,0.2-0.1c-0.1,0-0.1,0-0.2-0.1c-0.1-0.1-0.1-0.1-0.1-0.2c0-0.1,0-0.2,0.1-0.2c0.1-0.1,0.1-0.1,0.2-0.1h0.6v-0.1
		l0,0c-0.1-0.1-0.1-0.1-0.1-0.2c0-0.1,0-0.2,0.1-0.2l0,0v-1.5H37.4z"/>
	
		<linearGradient id="SVGID_20_" gradientUnits="userSpaceOnUse" x1="52.7685" y1="909.6351" x2="45.0849" y2="901.9515" gradientTransform="matrix(1 0 0 1 0 -870)">
		<stop  offset="0" style="stop-color:#FFFFFF"/>
		<stop  offset="1" style="stop-color:#D4C7C8"/>
	</linearGradient>
	<path class="st24" d="M47.1,32.4c-0.2,0.7-1.1,1.7-2.7,3c-1.1,1.1-1.6,2.1-1.4,3.1c0.1,0.8,0.5,1.3,1.2,1.5H49h2.7
		c-0.4,0-0.7-0.1-1.1-0.3c-0.5-0.3-0.8-0.7-1-1.1c-0.4-0.9,0-2,1.3-3.3c1.5-1.2,2.5-2.1,2.8-2.7c0.5-1,0.1-1.6-1.1-1.6
		c-1,1-2.1,1.4-3.4,1.3L47.1,32.4L47.1,32.4z"/>
	
		<linearGradient id="SVGID_21_" gradientUnits="userSpaceOnUse" x1="47.5486" y1="903.3644" x2="44.679" y2="892.6522" gradientTransform="matrix(1 0 0 1 0 -870)">
		<stop  offset="0" style="stop-color:#FFFFFF"/>
		<stop  offset="1" style="stop-color:#D4C7C8"/>
	</linearGradient>
	<path class="st25" d="M51.5,24.1c-0.1-0.3-0.4-0.5-0.8-0.5c-1.1,0.1-1.9,0.7-2.2,2h-4.2c-0.3,0.5-0.7,1-1.4,1.5
		c-2.4,1.9-3.1,3.5-1.9,4.8c0.4,0.3,1,0.5,1.7,0.5H47h2.1c-0.9-0.1-1.5-0.5-1.7-1.3c0-0.1,0-0.2-0.1-0.2c-0.2-1.3,0.4-2.4,1.7-3.5
		c1.1-0.9,1.8-1.6,2.1-2.1S51.6,24.5,51.5,24.1z"/>
	
		<linearGradient id="SVGID_22_" gradientUnits="userSpaceOnUse" x1="71.6" y1="942.7478" x2="71.6" y2="910.0474" gradientTransform="matrix(1 0 0 1 0 -870)">
		<stop  offset="0" style="stop-color:#FFFFFF"/>
		<stop  offset="1" style="stop-color:#56D7AC"/>
	</linearGradient>
	<path class="st26" d="M78.4,72V47.9H64.8l0,0c0.1,0.3,0.1,0.7,0.2,1.2c0.1,0.4,0.4,0.8,0.7,1c0.4,0.2,1.2,0.4,2.6,0.4
		c1.2,0.2,1.8,0.8,1.8,1.8c0,0.5-0.1,0.9-0.4,1.3c-0.2,0.3-0.5,0.6-1,1s-0.8,0.7-1,0.9c-0.3,0.4-0.5,0.7-0.5,1.2
		c0,0.4,0.2,0.8,0.7,1.1c0.2,0.1,0.6,0.3,1.3,0.5c0.3-0.2,0.5-0.3,0.8-0.4c0.4-0.2,0.6-0.3,0.7-0.5c0.3-0.3,0.5-0.7,0.6-1.1
		c0.1-0.3,0.2-0.8,0.3-1.5c0-0.9,0.3-1.8,0.8-2.5c0.5-0.8,1.2-1.2,2-1.2c0.6,0,1.1,0.2,1.4,0.7c0.3,0.4,0.5,0.9,0.5,1.5
		c0,0.3-0.1,0.8-0.3,1.4c-0.2,0.7-0.4,1.1-0.4,1.3c0,0.4,0.1,0.7,0.3,1.1c0.1,0.2,0.3,0.5,0.6,0.9c0.6,0.8,0.9,1.6,0.9,2.4
		c0,1.1-0.4,2.1-1.1,2.8c-0.5,0.5-1.3,1.1-2.5,1.8c-1.3,0.7-2.1,1.3-2.5,1.7c-0.6,0.6-1,1.3-1.1,2.1h1.6v1.6H71c0,0.5,0,1.1-0.1,1.6
		H78.4z"/>
	
		<linearGradient id="SVGID_23_" gradientUnits="userSpaceOnUse" x1="67.55" y1="901.3592" x2="67.55" y2="913.3869" gradientTransform="matrix(1 0 0 1 0 -870)">
		<stop  offset="0" style="stop-color:#D6CACB"/>
		<stop  offset="1" style="stop-color:#85908F"/>
	</linearGradient>
	<path class="st27" d="M77.2,42.9v-11c0-0.2-0.1-0.3-0.3-0.3H58.2c-0.2,0-0.3,0.1-0.3,0.3v8.8h1.3v-8.6H76v10.3H62v0.7h4h3h7.8
		C77,43.2,77.2,43.1,77.2,42.9z"/>
	
		<linearGradient id="SVGID_24_" gradientUnits="userSpaceOnUse" x1="22.7711" y1="917.2" x2="28.5826" y2="917.2" gradientTransform="matrix(1 0 0 1 0 -870)">
		<stop  offset="0.8196" style="stop-color:#FFFFFF"/>
		<stop  offset="1" style="stop-color:#DAF0F1"/>
	</linearGradient>
	<path class="st28" d="M80.4,47.9v-1.4H69.8H65h-0.9c0.3,0.4,0.6,0.8,0.7,1.4h13.6H80.4z"/>
	<g>
		<path class="st29" d="M67.8,39.4c-0.1,0-0.1,0-0.2-0.1l-0.9-0.8c-0.1-0.1-0.1-0.3,0-0.4c0.1-0.1,0.3-0.1,0.4,0l0.7,0.6l1.5-1.7
			c0.1-0.1,0.3-0.1,0.4,0s0.1,0.3,0,0.4L68,39.3C67.9,39.4,67.9,39.4,67.8,39.4z"/>
	</g>
	<g transform="matrix( 1, 0, 0, 1, 0,0) ">
		<g>
			<g id="Layer0_0_MEMBER_1_FILL">
				
					<linearGradient id="SVGID_25_" gradientUnits="userSpaceOnUse" x1="50.1371" y1="73.85" x2="55.4463" y2="73.85" gradientTransform="matrix(1 0 0 -1 0 130)">
					<stop  offset="0" style="stop-color:#0B4934"/>
					<stop  offset="1" style="stop-color:#0B634D"/>
					<stop  offset="1" style="stop-color:#004873"/>
					<stop  offset="1" style="stop-color:#004873"/>
				</linearGradient>
				<path class="st30" d="M55.3,55.9c-0.1-0.1-0.2-0.1-0.2-0.1h-4.6c-0.1,0-0.2,0-0.2,0.1c-0.1,0.1-0.1,0.2-0.1,0.2v0.1
					c0,0.1,0,0.2,0.1,0.2c0.1,0.1,0.2,0.1,0.2,0.1h4.6c0.1,0,0.2,0,0.2-0.1c0.1-0.1,0.1-0.2,0.1-0.2v-0.1
					C55.4,56.1,55.4,56,55.3,55.9z"/>
			</g>
		</g>
	</g>
</g>
<g>
	<path class="st31" d="M34.7,94.3l0-0.1l-0.6,0.2l0.1,0.1c0.1,0.3,0.3,0.7,0.5,1.2l0.1,0.1l0.6-0.2l-0.1-0.1
		C35,95,34.8,94.6,34.7,94.3z"/>
	<path class="st31" d="M33.1,94.4l0-0.1l-0.6,0.2l0,0.1c0.2,0.5,0.3,0.9,0.4,1.3l0,0.1l0.6-0.2l0-0.1C33.4,95.2,33.2,94.7,33.1,94.4
		z"/>
	<path class="st31" d="M36.5,91.7h-2.3V91h2.9v-0.6h-2.9v-0.8h-0.6v2.1h-2V94h5V91.7z M32.1,93.4v-1.2h3.8v1.2H32.1z"/>
	<path class="st31" d="M31.5,94.3c-0.3,0.5-0.5,0.9-0.8,1.3l-0.1,0.1l0.5,0.3l0.1-0.1c0.3-0.4,0.5-0.9,0.8-1.4l0.1-0.1l-0.6-0.3
		L31.5,94.3z"/>
	<path class="st31" d="M36.3,94.3L36.3,94.3l-0.6,0.2l0.1,0.1c0.3,0.5,0.6,0.9,0.7,1.3l0.1,0.1l0.6-0.3l-0.1-0.1
		C36.8,95.1,36.5,94.7,36.3,94.3z"/>
	<polygon class="st31" points="40.9,91.4 43.3,91.4 43.3,90.8 40.9,90.8 40.9,89.6 40.3,89.6 40.3,90.8 37.8,90.8 37.8,91.4 
		40.3,91.4 40.3,92.4 37.3,92.4 37.3,93 40.3,93 40.3,95.1 38.6,95.1 38.6,93.5 38,93.5 38,95.7 42.5,95.7 42.5,96.1 43.2,96.1 
		43.2,93.5 42.5,93.5 42.5,95.1 40.9,95.1 40.9,93 43.8,93 43.8,92.4 40.9,92.4 	"/>
	<path class="st31" d="M49.1,91L49.1,91l0.5-0.4l-0.1-0.1c-0.4-0.3-0.8-0.5-1.1-0.8l-0.1-0.1l-0.4,0.4l0.1,0.1
		C48.4,90.4,48.8,90.7,49.1,91z"/>
	<path class="st31" d="M48.3,94.7c0.6-0.5,1-1.1,1.3-1.9l0-0.5h-3.2c0.1-0.2,0.2-0.5,0.2-0.7h3.7v-0.6h-3.6c0.1-0.3,0.2-0.8,0.2-1.3
		l0-0.1l-0.6-0.1l0,0.1c-0.1,0.4-0.2,0.9-0.3,1.4h-1.3c0.1-0.3,0.3-0.6,0.4-1l0-0.1l-0.6-0.2l0,0.1c-0.2,0.4-0.3,0.8-0.5,1.2l0,0.6
		H46c-0.4,1.4-1.1,2.6-2.1,3.7l-0.1,0.1l0.1,0.1c0.1,0.1,0.2,0.2,0.3,0.3l0.1,0.1l0.1-0.1c0.8-0.8,1.4-1.7,1.8-2.7
		c0.3,0.6,0.6,1.2,1.1,1.6c-0.5,0.3-1.2,0.6-2.1,0.8l-0.2,0l0.1,0.1c0.1,0.1,0.2,0.2,0.2,0.3l0,0.1l0.1,0c1-0.3,1.8-0.7,2.4-1
		c0.5,0.4,1.3,0.7,2.2,0.9l0.1,0l0-0.1c0.1-0.1,0.1-0.2,0.2-0.4l0.1-0.2l-0.2,0C49.5,95.3,48.8,95,48.3,94.7z M49,92.9
		c-0.2,0.5-0.6,1-1.1,1.4c-0.5-0.4-0.8-0.9-1.1-1.4H49z"/>
	<path class="st31" d="M54.3,89.9l0-0.1l-0.6-0.2l0,0.1c-0.3,1-0.8,1.8-1.4,2.6l-0.1,0.1l0.1,0.1c0.1,0.1,0.2,0.1,0.3,0.2l0.1,0.1
		l0.1-0.1c0.3-0.4,0.6-0.9,0.9-1.4h0.4v4.9h0.6v-1.7h2.2v-0.6h-2.2v-1h2v-0.6h-2v-1h2.4v-0.6H54C54.1,90.4,54.2,90.1,54.3,89.9z"/>
	<path class="st31" d="M52.7,89.7l-0.6-0.2l0,0.1c-0.4,1.2-0.9,2.3-1.5,3.1l-0.1,0.1l0.1,0.1c0.1,0.1,0.1,0.2,0.2,0.3l0.1,0.2
		l0.1-0.2c0.2-0.2,0.3-0.5,0.5-0.8v3.6h0.6v-4.8c0.2-0.5,0.4-1,0.6-1.5L52.7,89.7z"/>
	<path class="st31" d="M62.3,93.9c0.4-0.7,0.7-1.6,1.1-2.6l0-0.1L62.9,91l0,0.1c-0.4,1-0.7,1.8-1.1,2.5l-0.1,0.1l0.6,0.3L62.3,93.9z
		"/>
	<polygon class="st31" points="61.6,95.1 61.6,89.7 61,89.7 61,95.1 59.9,95.1 59.9,89.7 59.3,89.7 59.3,95.1 57.2,95.1 57.2,95.7 
		63.7,95.7 63.7,95.1 	"/>
	<path class="st31" d="M58.5,93.8l0,0.1l0.6-0.2l0-0.1c-0.3-0.9-0.7-1.8-1-2.5l0-0.1l-0.6,0.2l0,0.1C57.9,92.2,58.2,93.1,58.5,93.8z
		"/>
</g>
<g>
	<path class="st32" d="M33.1,103.8c-1-0.5-1.7-1-2.1-1.6c-0.6,0.7-1.3,1.2-2.2,1.7c-0.1-0.1-0.1-0.2-0.2-0.2c1-0.5,1.8-1.1,2.3-1.8
		l0.3,0.1c0,0,0,0,0,0c0,0,0,0.1-0.1,0.1c0.5,0.7,1.2,1.2,2.1,1.6C33.2,103.6,33.2,103.7,33.1,103.8z M29.5,103.6h3v0.2h-1.4v0.9
		h1.6v0.2h-1.6v0.9h2v0.3h-4.2v-0.3h2V105h-1.6v-0.2h1.6v-0.9h-1.4V103.6z"/>
	<path class="st32" d="M34,103.5h1.4c0.1-0.2,0.3-0.5,0.4-0.8l0.2,0.1c-0.1,0.2-0.2,0.4-0.4,0.7h0.8v0.2H34V103.5z M34.5,104.9
		l0.2,0.1c-0.2,0.3-0.3,0.7-0.5,0.9l-0.2-0.1C34.2,105.5,34.4,105.2,34.5,104.9z M35.1,103.9h0.2v0.5h0.9v0.2h-0.9v1.2
		c0,0.3-0.1,0.5-0.5,0.5c-0.1,0-0.3,0-0.4,0c0-0.1,0-0.2-0.1-0.3c0.2,0,0.3,0,0.4,0c0.2,0,0.3-0.1,0.3-0.3v-1.2h-1v-0.2h1V103.9z
		 M35,101.9l0.2-0.1c0.1,0.2,0.2,0.4,0.2,0.6h0.8v0.2h-2.1v-0.2h1c0-0.1-0.1-0.2-0.1-0.3C35,102,35,101.9,35,101.9z M34.4,102.8
		l0.2-0.1c0.1,0.2,0.2,0.4,0.4,0.6l-0.2,0.1C34.7,103.2,34.5,103,34.4,102.8z M36.1,105.7c-0.2-0.3-0.3-0.5-0.5-0.7l0.2-0.1
		c0.2,0.2,0.3,0.5,0.5,0.7L36.1,105.7z M36.1,106.2c0.4-0.5,0.6-1.2,0.6-2.2v-1.8c0.6,0,1.2-0.1,1.8-0.2l0.1,0.2
		c-0.5,0.1-1,0.1-1.6,0.2v1.2h1.7v0.2H38v2.5h-0.2v-2.5H37v0.1c0,1-0.2,1.8-0.6,2.3C36.2,106.3,36.2,106.3,36.1,106.2z"/>
	<path class="st32" d="M39.6,104.4c-0.1-0.1-0.1-0.2-0.2-0.3c0.5-0.7,0.8-1.4,1.1-2.3l0.3,0.1c-0.1,0.4-0.3,0.8-0.4,1.1v3.4h-0.3
		v-2.9C39.9,103.8,39.8,104.1,39.6,104.4z M41,103.9c-0.1-0.1-0.1-0.1-0.2-0.2c0.5-0.5,0.8-1.2,1-1.9l0.3,0.1
		c-0.1,0.2-0.2,0.5-0.3,0.7h2.3v0.3h-1.7v0.9h1.5v0.2h-1.5v1h1.6v0.2h-1.6v1.2h-0.3v-3.6h-0.4C41.4,103.2,41.2,103.6,41,103.9z"/>
	<path class="st32" d="M47.6,101.9h0.3v4h1.6v0.3h-4.6v-0.3h1.6v-4h0.3v4h1V101.9z M45.8,104.8c-0.2-0.6-0.4-1.2-0.7-1.9l0.2-0.1
		c0.2,0.6,0.5,1.2,0.7,1.9L45.8,104.8z M48.4,104.8l-0.2-0.1c0.3-0.5,0.5-1.1,0.8-1.9l0.3,0.1C49,103.6,48.7,104.3,48.4,104.8z"/>
	<path class="st32" d="M50.2,103.5h1.4c0.1-0.2,0.3-0.5,0.4-0.8l0.2,0.1c-0.1,0.2-0.2,0.4-0.4,0.7h0.8v0.2h-2.4V103.5z M50.7,104.9
		l0.2,0.1c-0.2,0.3-0.3,0.7-0.5,0.9l-0.2-0.1C50.4,105.5,50.6,105.2,50.7,104.9z M51.3,103.9h0.2v0.5h0.9v0.2h-0.9v1.2
		c0,0.3-0.1,0.5-0.5,0.5c-0.1,0-0.3,0-0.4,0c0-0.1,0-0.2-0.1-0.3c0.2,0,0.3,0,0.4,0c0.2,0,0.3-0.1,0.3-0.3v-1.2h-1v-0.2h1V103.9z
		 M51.2,101.9l0.2-0.1c0.1,0.2,0.2,0.4,0.2,0.6h0.8v0.2h-2.1v-0.2h1c0-0.1-0.1-0.2-0.1-0.3C51.2,102,51.2,101.9,51.2,101.9z
		 M50.6,102.8l0.2-0.1c0.1,0.2,0.2,0.4,0.4,0.6l-0.2,0.1C50.8,103.2,50.7,103,50.6,102.8z M52.3,105.7c-0.2-0.3-0.3-0.5-0.5-0.7
		l0.2-0.1c0.2,0.2,0.3,0.5,0.5,0.7L52.3,105.7z M52.3,106.2c0.4-0.5,0.6-1.2,0.6-2.2v-1.8c0.6,0,1.2-0.1,1.8-0.2l0.1,0.2
		c-0.5,0.1-1,0.1-1.6,0.2v1.2h1.7v0.2h-0.7v2.5h-0.2v-2.5h-0.8v0.1c0,1-0.2,1.8-0.6,2.3C52.4,106.3,52.3,106.3,52.3,106.2z"/>
	<path class="st32" d="M55.7,104.4c0-0.1-0.1-0.2-0.1-0.3c0.5-0.6,0.8-1.4,1.1-2.2l0.3,0.1c-0.1,0.4-0.3,0.8-0.5,1.2v3.4h-0.3v-2.9
		C56.1,103.9,55.9,104.1,55.7,104.4z M56.8,105.6c0-0.1-0.1-0.1-0.2-0.2c0.7-0.6,1.2-1.4,1.5-2.3h-1.2v-0.2h1.4v-1h0.3v1h1.5v0.2
		h-1.3c0.3,0.9,0.8,1.7,1.5,2.2c-0.1,0.1-0.1,0.1-0.2,0.2c-0.7-0.6-1.2-1.5-1.5-2.4h0v2.1h0.8v0.2h-0.8v1h-0.3v-1h-0.8v-0.2h0.8
		v-2.1h0C58,104.1,57.5,104.9,56.8,105.6z"/>
	<path class="st32" d="M61,105.3l0-0.3c0.3,0,0.7-0.1,1.1-0.2c0,0,0,0.1,0,0.1c0,0.1,0,0.1,0,0.1C61.8,105.2,61.4,105.2,61,105.3z
		 M61.6,102.6l-0.1,1.4h0.6l0.1-1.7h-1.1v-0.2h1.3l-0.1,2h0.3c0,0.6,0,1.2-0.1,1.7c0,0.4-0.2,0.6-0.6,0.6c-0.1,0-0.1,0-0.2,0
		c0,0-0.1,0-0.1,0c0,0-0.1,0-0.2,0c0-0.1,0-0.2,0-0.3c0.1,0,0.3,0,0.5,0c0.3,0,0.4-0.1,0.4-0.4c0-0.3,0-0.8,0.1-1.4h-1.2l0.1-1.7
		H61.6z M65.5,103.6c-0.6-0.4-1-0.8-1.4-1.4c-0.3,0.5-0.8,1-1.4,1.4c-0.1-0.1-0.1-0.1-0.2-0.2c0.7-0.4,1.2-1,1.5-1.7l0.3,0.1
		c0,0,0,0.1-0.1,0.1c0,0,0,0.1,0,0.1c0.4,0.6,0.9,1.1,1.4,1.4C65.6,103.5,65.5,103.6,65.5,103.6z M62.7,105.9h1.7
		c0.2-0.6,0.4-1.2,0.6-1.7l0.3,0.1c-0.2,0.7-0.4,1.2-0.6,1.7h0.8v0.2h-2.8V105.9z M62.9,104.3l0.2-0.1c0.1,0.3,0.2,0.7,0.4,1.2
		l-0.2,0.1C63.2,105.2,63.1,104.8,62.9,104.3z M63.1,103.5h1.9v0.2h-1.9V103.5z M63.9,104.2l0.2-0.1c0.1,0.3,0.2,0.7,0.3,1.2
		l-0.2,0.1C64.1,105,64,104.6,63.9,104.2z"/>
</g>
</svg>
